<svg xmlns="http://www.w3.org/2000/svg" viewBox="0 0 100 100">
<rect width="100" height="100" fill="#0A1020"/>
<rect x="0" y="75" width="100" height="25" fill="#D4DDE8" opacity="0.2"/>
<polygon points="50,18 36,48 64,48" fill="#1E3C28"/>
<polygon points="50,32 33,62 67,62" fill="#244D2E"/>
<path d="M36,48 Q50,44 64,48" fill="#D4DDE8" opacity="0.9"/>
<path d="M33,62 Q50,58 67,62" fill="#D4DDE8" opacity="0.9"/>
<rect x="47" y="62" width="6" height="14" fill="#2A1408"/>
<path d="M47,62 Q50,60 53,62" fill="#D4DDE8" opacity="0.9"/>
<polygon points="22,28 12,50 32,50" fill="#1A3020"/>
<polygon points="22,42 10,66 34,66" fill="#1E3828"/>
<path d="M10,66 Q22,62 34,66" fill="#D4DDE8" opacity="0.9"/>
<rect x="19" y="66" width="6" height="10" fill="#2A1408"/>
<polygon points="78,22 68,46 88,46" fill="#1A3020"/>
<polygon points="78,38 66,66 90,66" fill="#1E3828"/>
<path d="M66,66 Q78,62 90,66" fill="#D4DDE8" opacity="0.9"/>
<rect x="75" y="66" width="6" height="10" fill="#2A1408"/>
</svg>
