<svg xmlns="http://www.w3.org/2000/svg" viewBox="0 0 100 100">
<rect width="100" height="100" fill="#160E1A"/>
<path d="M50 85 Q50 60 40 40 Q34 26 42 18" fill="none" stroke="#4A2A1A" stroke-width="6" stroke-linecap="round"/>
<path d="M50 60 Q62 44 70 30" fill="none" stroke="#4A2A1A" stroke-width="4" stroke-linecap="round"/>
<path d="M50 70 Q36 58 28 45" fill="none" stroke="#4A2A1A" stroke-width="3.5" stroke-linecap="round"/>
<circle cx="42" cy="18" r="7" fill="#E8A0B0"/>
<circle cx="38" cy="14" r="5" fill="#F0B8C4"/>
<circle cx="70" cy="28" r="7" fill="#E8A0B0"/>
<circle cx="74" cy="24" r="5" fill="#F0B8C4"/>
<circle cx="28" cy="43" r="6" fill="#E8A0B0"/>
<circle cx="24" cy="40" r="4" fill="#F0B8C4"/>
<circle cx="56" cy="36" r="5" fill="#E8A0B0"/>
<circle cx="52" cy="32" r="4" fill="#F0B8C4"/>
<circle cx="80" cy="38" r="5" fill="#F0B8C4" opacity="0.7"/>
<path d="M0 78 Q25 72 50 78 Q75 84 100 78" fill="none" stroke="#C890A0" stroke-width="1" opacity="0.3"/>
</svg>
