<svg xmlns="http://www.w3.org/2000/svg" viewBox="0 0 100 100">
<rect width="100" height="100" fill="#180C06"/>
<rect x="44" y="16" width="12" height="8" rx="2" fill="#5A3010"/>
<rect x="38" y="32" width="24" height="36" rx="4" fill="#3A1A08"/>
<rect x="40" y="34" width="20" height="32" rx="3" fill="#8B3A1F"/>
<rect x="42" y="36" width="8" height="28" rx="2" fill="#E8B87A" opacity="0.3"/>
<rect x="54" y="36" width="4" height="28" rx="1" fill="#E8B87A" opacity="0.3"/>
<circle cx="50" cy="50" r="10" fill="#E8C060" opacity="0.3"/>
<circle cx="50" cy="50" r="6" fill="#FFD060" opacity="0.4"/>
<rect x="36" y="30" width="28" height="6" rx="2" fill="#5A3010"/>
<rect x="36" y="64" width="28" height="6" rx="2" fill="#5A3010"/>
<rect x="46" y="22" width="8" height="12" rx="1" fill="#5A3010"/>
<path d="M32 44 Q28 40 30 48 Q28 56 32 52" fill="#C04010" opacity="0.7"/>
<path d="M68 44 Q72 40 70 48 Q72 56 68 52" fill="#E87820" opacity="0.7"/>
<path d="M36 38 L30 30 Q34 28 36 34" fill="#C04010" opacity="0.5"/>
<path d="M64 38 L70 30 Q66 28 64 34" fill="#E87820" opacity="0.5"/>
</svg>
