<svg xmlns="http://www.w3.org/2000/svg" viewBox="0 0 100 100">
<rect width="100" height="100" fill="#14081A"/>
<path d="M50 86 Q48 64 44 50 Q40 36 44 22" fill="none" stroke="#3A1A28" stroke-width="6" stroke-linecap="round"/>
<path d="M44 48 Q36 38 28 28" fill="none" stroke="#3A1A28" stroke-width="4" stroke-linecap="round"/>
<path d="M50 60 Q58 50 66 40" fill="none" stroke="#3A1A28" stroke-width="3.5" stroke-linecap="round"/>
<circle cx="44" cy="22" r="7" fill="#E8A0B0"/>
<circle cx="38" cy="18" r="5" fill="#F0B8C4"/>
<circle cx="50" cy="18" r="5" fill="#F0B8C4"/>
<circle cx="44" cy="14" r="5" fill="#F0B8C4"/>
<circle cx="44" cy="26" r="5" fill="#E8A0B0" opacity="0.8"/>
<circle cx="44" cy="22" r="3" fill="#FFE060"/>
<circle cx="28" cy="28" r="6" fill="#E8A0B0"/>
<circle cx="22" cy="24" r="4" fill="#F0B8C4"/>
<circle cx="34" cy="24" r="4" fill="#F0B8C4"/>
<circle cx="28" cy="20" r="4" fill="#F0B8C4"/>
<circle cx="28" cy="28" r="2.5" fill="#FFE060"/>
<circle cx="66" cy="40" r="6" fill="#F0B8C4"/>
<circle cx="60" cy="36" r="4" fill="#F8C8D4"/>
<circle cx="72" cy="36" r="4" fill="#F8C8D4"/>
<circle cx="66" cy="32" r="4" fill="#F8C8D4"/>
<circle cx="66" cy="40" r="2.5" fill="#FFE060"/>
<path d="M32 76 Q44 68 56 72" fill="#F0B8C4" opacity="0.3"/>
<path d="M18 68 Q24 64 30 68" fill="#E8A0B0" opacity="0.3"/>
</svg>
